Coordinates
version=1
nRows=8
nColumns=42
inDegrees=yes

Units are S.I. units (second, meters, Newtons, ...)
If the header above contains a line with 'inDegrees', this indicates whether rotational values are in degrees (yes) or radians (no).

endheader
time	pelvis_tilt	pelvis_list	pelvis_rotation	pelvis_tx	pelvis_ty	pelvis_tz	hip_flexion_r	hip_adduction_r	hip_rotation_r	knee_angle_r	knee_adduction_r	knee_angle_r_beta	ankle_angle_r	subtalar_angle_r	mtp_angle_r	hip_flexion_l	hip_adduction_l	hip_rotation_l	knee_angle_l	knee_adduction_l	knee_angle_l_beta	ankle_angle_l	subtalar_angle_l	mtp_angle_l	lumbar_extension	lumbar_bending	lumbar_rotation	arm_flex_r	arm_add_r	arm_rot_r	elbow_flex_r	pro_sup_r	wrist_flex_r	wrist_dev_r	arm_flex_l	arm_add_l	arm_rot_l	elbow_flex_l	pro_sup_l	wrist_flex_l	wrist_dev_l
      0.38000000	      9.18636730	     -0.05457220	      0.42274199	     -1.39373899	      0.91860527	      0.24324478	     22.28013666	      2.46894264	    -17.02493298	     22.65842276	     -5.61427328	      0.39546408	     10.50594013	     12.26282824	     -8.13470495	    -29.03035602	     -0.80577368	    -23.09337165	     22.00329620	     -6.66324281	      0.38402997	     15.91707576	     34.41665540	     -8.13470495	    -22.58285174	      3.64377963	     -7.27049342	     -6.54459968	     -6.83064510	      3.26113825	     29.79436757	     90.00000001	      0.00000000	      0.00000000	      5.38257139	    -15.90458063	     -7.91735499	     53.71653412	     90.00000001	      0.00000000	      0.00000000
      0.39000000	      9.47558054	     -0.56583470	      0.22095432	     -1.37665507	      0.92048223	      0.24516133	     21.70689106	      3.18396176	    -16.62387227	     24.34425617	     -5.77851523	      0.42488742	     10.54920540	     11.56568264	     -8.12530283	    -28.76030132	     -1.51020499	    -22.85642389	     24.71001897	     -7.26442364	      0.43127119	     13.40901250	     33.01359448	     -8.12530283	    -22.83612708	      4.14686379	     -6.90517602	     -6.22215900	     -7.00960409	      3.20888631	     29.72813531	     90.00000001	      0.00000000	      0.00000000	      4.78395706	    -15.51895925	     -7.99867332	     53.25438974	     90.00000001	      0.00000000	      0.00000000
      0.40000000	      9.78943789	     -1.09774101	     -0.11170101	     -1.35993373	      0.92312922	      0.24738895	     20.76001648	      4.06264845	    -15.27101775	     25.43344736	     -5.60160439	      0.44389740	     10.23832300	      9.73253876	     -8.09629963	    -28.41378713	     -2.12994905	    -21.80582656	     27.57795439	     -7.49092501	      0.48132611	     10.96784964	     29.76482944	     -8.09629963	    -23.18962780	      4.59890588	     -6.39595788	     -5.80028077	     -7.14611213	      3.05819009	     29.63001693	     90.00000001	      0.00000000	      0.00000000	      4.22890886	    -15.09368382	     -8.10110191	     52.64690293	     90.00000001	      0.00000000	      0.00000000
      0.41000000	     10.08442491	     -1.46057888	     -0.47180899	     -1.34354941	      0.92614912	      0.24940724	     19.73513935	      4.65753586	    -14.09577031	     26.37197072	     -5.30678213	      0.46027772	     10.48115265	      8.46837212	     -8.06049848	    -27.74398819	     -2.53832741	    -20.95888785	     30.73715342	     -7.89468948	      0.53646453	      8.70382766	     26.59516354	     -8.06049848	    -23.56899048	      4.86402161	     -5.89504341	     -5.35766330	     -7.30592089	      2.92526235	     29.60911143	     90.00000001	      0.00000000	      0.00000000	      3.69973322	    -14.68889281	     -8.07147425	     51.97404634	     90.00000001	      0.00000000	      0.00000000
      0.42000000	     10.30321739	     -1.87199757	     -0.81843386	     -1.32737773	      0.92930330	      0.25153553	     18.69622306	      5.28765801	    -13.47302376	     27.04508396	     -5.18989262	      0.47202576	     11.10228615	      8.38246012	     -8.05035840	    -26.67809353	     -3.13595348	    -20.85167117	     34.21616320	     -8.53151082	      0.59718471	      6.75223891	     24.34086252	     -8.05035840	    -23.88114307	      5.15058306	     -5.36173735	     -4.92872038	     -7.49380467	      2.88097685	     29.66489854	     90.00000001	      0.00000000	      0.00000000	      3.15547221	    -14.30925773	     -7.96883616	     51.25175295	     90.00000001	      0.00000000	      0.00000000
      0.43000000	     10.46706717	     -2.08540591	     -1.24005890	     -1.31167579	      0.93287182	      0.25366191	     17.51503298	      5.70675169	    -12.41518830	     27.36337131	     -4.84666072	      0.47758092	     11.51814610	      7.64635399	     -8.01179470	    -25.46543698	     -3.39755692	    -19.76639796	     37.69053055	     -8.66983401	      0.65782385	      5.15088049	     20.01436627	     -8.01179470	    -24.17360152	      5.18194422	     -4.81111391	     -4.44156969	     -7.60360336	      2.71751784	     29.71947911	     90.00000001	      0.00000000	      0.00000000	      2.67834704	    -13.92852410	     -7.80079452	     50.38791190	     90.00000001	      0.00000000	      0.00000000
      0.44000000	     10.55033289	     -2.32104050	     -1.60926503	     -1.29626246	      0.93643859	      0.25577192	     16.32908527	      6.11618198	    -11.88442542	     27.40995160	     -4.67706655	      0.47839390	     12.21984377	      7.84837489	     -7.98365260	    -23.91152190	     -3.80607808	    -19.45996926	     41.24075607	     -9.14720975	      0.71978698	      4.01622617	     16.88091165	     -7.98365260	    -24.38888673	      5.22896042	     -4.25841447	     -3.99452690	     -7.75889503	      2.66830139	     29.88724773	     90.00000001	      0.00000000	      0.00000000	      2.21574270	    -13.58159157	     -7.52470431	     49.49019160	     90.00000001	      0.00000000	      0.00000000
      0.45000000	     10.63948910	     -2.53439525	     -1.95232621	     -1.28100341	      0.94017325	      0.25780560	     14.97072992	      6.46682096	    -11.44807989	     27.12382542	     -4.47827758	      0.47340006	     13.22216351	      8.42110600	     -7.97233080	    -22.23528622	     -4.23531535	    -19.71099364	     44.58019777	     -9.92651240	      0.77807123	      3.27373250	     14.66758658	     -7.97233080	    -24.60766853	      5.24035342	     -3.68620792	     -3.57633864	     -7.93663555	      2.67944801	     30.11748928	     90.00000001	      0.00000000	      0.00000000	      1.78591239	    -13.24555124	     -7.16378517	     48.55857480	     90.00000001	      0.00000000	      0.00000000
